# xmcd
#
# Track frame offsets:
#	150
#	7821
#	18992
#	28213
#	49845
#	70703
#	89151
#	101326
#	119709
#	142362
#	160400
# Disc length: 2403 seconds
# Revision: 1
# Processed by: cddbd v1.5.2PL0 Copyright (c) Steve Scherf et al.
#
# Submitted via: libkcddb 0.31
#
DISCID=9909610b
DTITLE=Sidi Blues and Firends - Full Moon Blues
DYEAR=2008
DGENRE=Blues
TTITLE0=Mancini/Mc Daniel - Peter Gunn/Cadillac
TTITLE1=Vincent/Jones - Baby Blue
TTITLE2=A. Crudup - So glad you're mine
TTITLE3=E. James/Lewis/Levy/Robinson - The sky is crying
TTITLE4=W. Dixon - Hoochie coochie man
TTITLE5=Fleecie Moore - Caldonia
TTITLE6=Ch. Underwood - Ubangi stomp
TTITLE7=BB King - arr. Z. Kowal - Rock me baby
TTITLE8=Preston Foster - Got my mojo working
TTITLE9=R. Johnson - Sweet home Chicago
TTITLE10=T-Bone Walker - Stormy Monday
EXTD=
EXTT0=
EXTT1=
EXTT2=
EXTT3=
EXTT4=
EXTT5=
EXTT6=
EXTT7=
EXTT8=
EXTT9=
EXTT10=
PLAYORDER=
